<svg xmlns="http://www.w3.org/2000/svg" width="1000.001" height="186.117" viewBox="0 0 1000.001 186.117">
  <g id="sala-de-encontro-horizontal-2-primary" transform="translate(0.02 0.02)">
    <g id="naming" transform="translate(245.01 58.188)">
      <g id="encontro" transform="translate(354.018 1.265)">
        <path id="O2" d="M1448.564,176.865a28.427,28.427,0,0,1-10.722-1.983,25.237,25.237,0,0,1-8.526-5.577,26.018,26.018,0,0,1-5.63-8.519,29.8,29.8,0,0,1,0-21.657,25.875,25.875,0,0,1,5.63-8.525,25.122,25.122,0,0,1,8.526-5.571,29.973,29.973,0,0,1,21.444,0,25.322,25.322,0,0,1,8.526,5.571,25.877,25.877,0,0,1,5.63,8.525,29.806,29.806,0,0,1,0,21.657,25.78,25.78,0,0,1-5.63,8.519,25.238,25.238,0,0,1-8.526,5.577A28.428,28.428,0,0,1,1448.564,176.865Zm0-11.467a11.264,11.264,0,0,0,9-3.86q3.324-3.853,3.328-11.58t-3.328-11.58a12.433,12.433,0,0,0-18.009,0q-3.324,3.863-3.321,11.58t3.321,11.58A11.264,11.264,0,0,0,1448.564,165.4Z" transform="translate(-1074.526 -100.615)" fill="#5e028f"/>
        <path id="R" d="M1364.05,171.528v-25.2q0-11.041,6.755-17.1t18.762-6.063c1.145,0,2.143.02,3,.053s1.624.087,2.309.16c.466.047.925.106,1.378.173a3.2,3.2,0,0,1,2.749,3.188V132.9a3.214,3.214,0,0,1-3.561,3.2c-.166-.02-.339-.033-.506-.053q-2.146-.21-3.86-.213c-3.86,0-6.9.3-9.111,2.19s-3.321,4.705-3.321,8.419v25.084a4.187,4.187,0,0,1-4.18,4.18h-6.229a4.187,4.187,0,0,1-4.18-4.18Z" transform="translate(-1055.261 -100.655)" fill="#5e028f"/>
        <path id="T" d="M1338.668,165.212c-.279.053-.579.1-.885.14a34.342,34.342,0,0,1-4.825.319,24.419,24.419,0,0,1-8.419-1.391,18.5,18.5,0,0,1-6.542-4.02,17.782,17.782,0,0,1-4.233-6.489,24.468,24.468,0,0,1-1.5-8.9V92.821a3.228,3.228,0,0,1,3.221-3.221h8.139a3.224,3.224,0,0,1,3.221,3.221v20.825h9.644a3.228,3.228,0,0,1,3.221,3.221v4.812a3.224,3.224,0,0,1-3.221,3.221h-9.644v19.979a9.237,9.237,0,0,0,1.983,6.056,6.87,6.87,0,0,0,5.631,2.416,20.821,20.821,0,0,0,3.155-.206,3.212,3.212,0,0,1,3.7,3.181v5.724a3.191,3.191,0,0,1-2.655,3.168Z" transform="translate(-1037.939 -89.427)" fill="#5e028f"/>
        <path id="N2" d="M1264.681,172.316v-29.4q0-4.932-2.143-7.021c-1.424-1.391-3.754-2.09-6.968-2.09s-5.537.7-6.968,2.09-2.143,3.74-2.143,7.021v29.4a3.224,3.224,0,0,1-3.221,3.221h-7.927a3.224,3.224,0,0,1-3.221-3.221V141.421q0-9.644,6.323-14.2t17.264-4.559q10.931,0,17.257,4.559t6.329,14.2v30.894a3.224,3.224,0,0,1-3.221,3.221H1267.9a3.228,3.228,0,0,1-3.221-3.221Z" transform="translate(-1011.125 -100.484)" fill="#5e028f"/>
        <path id="O1" d="M1168.394,176.865a28.425,28.425,0,0,1-10.722-1.983,25.234,25.234,0,0,1-8.526-5.577,26.018,26.018,0,0,1-5.63-8.519,29.806,29.806,0,0,1,0-21.657,25.877,25.877,0,0,1,5.63-8.525,25.119,25.119,0,0,1,8.526-5.571,29.972,29.972,0,0,1,21.443,0,25.321,25.321,0,0,1,8.526,5.571,25.875,25.875,0,0,1,5.63,8.525,29.806,29.806,0,0,1,0,21.657,25.778,25.778,0,0,1-5.63,8.519,25.238,25.238,0,0,1-8.526,5.577A28.427,28.427,0,0,1,1168.394,176.865Zm0-11.467a11.265,11.265,0,0,0,9-3.86q3.324-3.853,3.328-11.58t-3.328-11.58a12.433,12.433,0,0,0-18.01,0q-3.324,3.863-3.321,11.58t3.321,11.58A11.264,11.264,0,0,0,1168.394,165.4Z" transform="translate(-980.82 -100.615)" fill="#5e028f"/>
        <path id="C" d="M1109.371,175.6c-.706.106-1.451.206-2.223.306-1.883.24-3.867.4-5.937.473a58.235,58.235,0,0,1-13.284-.938,29.186,29.186,0,0,1-10.442-4.093,20.357,20.357,0,0,1-6.968-7.7,23.048,23.048,0,0,1-2.729-10.822,26.209,26.209,0,0,1,2-11.74,24.318,24.318,0,0,1,6.4-9.071,28.1,28.1,0,0,1,10.05-5.6,46.629,46.629,0,0,1,12.965-2.163c2.07-.073,4.04-.053,5.9.067.845.053,1.823.106,2.788.166a3.225,3.225,0,0,1,3.015,3.328l-.193,5.5a3.224,3.224,0,0,1-3.481,3.095c-.259-.02-.526-.04-.792-.053-1.471-.093-3.275-.1-5.417-.033q-9.424.329-14.176,4.353c-3.161,2.682-4.692,5.437-4.492,11.228.18,5.145,1.917,7.96,5.285,10.09s8.226,3.095,14.582,2.875q3.1-.11,5.457-.406l.619-.08a3.21,3.21,0,0,1,3.661,3.075l.166,4.845a3.205,3.205,0,0,1-2.749,3.294Z" transform="translate(-956.164 -101.001)" fill="#5e028f"/>
        <path id="N1" d="M1020.461,172.316v-29.4q0-4.932-2.143-7.021t-6.968-2.09c-3.221,0-5.537.7-6.968,2.09s-2.143,3.74-2.143,7.021v29.4a3.224,3.224,0,0,1-3.221,3.221h-7.927a3.228,3.228,0,0,1-3.221-3.221V141.421q0-9.644,6.323-14.2t17.257-4.559q10.931,0,17.264,4.559t6.323,14.2v30.894a3.224,3.224,0,0,1-3.221,3.221h-8.14a3.224,3.224,0,0,1-3.221-3.221Z" transform="translate(-929.443 -100.484)" fill="#5e028f"/>
        <path id="E" d="M900.08,161.171V92.561A3.224,3.224,0,0,1,903.3,89.34h43.526a3.224,3.224,0,0,1,3.221,3.221v6.323a3.224,3.224,0,0,1-3.221,3.221h-31.52v16.618h25.6a3.228,3.228,0,0,1,3.221,3.221v5.677a3.224,3.224,0,0,1-3.221,3.221h-25.6v20.8H947.04a3.228,3.228,0,0,1,3.221,3.221v6.316a3.228,3.228,0,0,1-3.221,3.221H903.3a3.224,3.224,0,0,1-3.221-3.221Z" transform="translate(-900.08 -89.34)" fill="#5e028f"/>
      </g>
      <g id="de" transform="translate(217.896 1.271)">
        <path id="E-2" data-name="E" d="M800.331,125.385c8.645-3.694,21-2.935,28.245,3.481,5.238,4.639,7.128,12.146,7.128,18.961,0,.492.007,1.111.007,1.777a4.187,4.187,0,0,1-4.18,4.18H797.842c1.378,10.795,12.312,10.276,19.919,10.276a73.181,73.181,0,0,0,7.94-.5,3.1,3.1,0,0,1,2.522.785,3.128,3.128,0,0,1,1.085,2.409v5.664a3.217,3.217,0,0,1-2.882,3.2,87.14,87.14,0,0,1-16.758.293c-6.828-.712-13.464-2.742-18.369-6.928-4.6-3.913-7.307-10.842-7.381-18.648-.1-11.547,5.89-20.465,16.406-24.958Zm20.685,17.73c0-5.358-4.685-8.785-10.489-8.732-5.684.047-11.181,4.439-11.807,8.732Z" transform="translate(-725.105 -100.66)" fill="#5e028f"/>
        <path id="D" d="M14.423,74.567a22.023,22.023,0,0,1-7.667-5.038A22.525,22.525,0,0,1,1.771,61.6,29.181,29.181,0,0,1,0,51.14,35.442,35.442,0,0,1,1.771,39.773a25.933,25.933,0,0,1,5.145-9.058,24.068,24.068,0,0,1,8.312-6,27.125,27.125,0,0,1,11.148-2.2,32.177,32.177,0,0,1,10.669,1.664q.3.1.586.212V3.221A3.227,3.227,0,0,1,40.851,0h8.139a3.228,3.228,0,0,1,3.221,3.221v68.61a3.224,3.224,0,0,1-3.221,3.221H40.851a3.228,3.228,0,0,1-3.221-3.221V71.7a21.688,21.688,0,0,1-4.18,2.759,19.764,19.764,0,0,1-9.111,1.877A26.649,26.649,0,0,1,14.423,74.567ZM17.8,37.85q-3.215,3.863-3.215,11.58T17.8,61.009a10.705,10.705,0,0,0,8.685,3.861,10.705,10.705,0,0,0,8.685-3.861q3.215-3.863,3.215-11.58T35.167,37.85a10.715,10.715,0,0,0-8.685-3.861A10.705,10.705,0,0,0,17.8,37.85Z" transform="translate(0 0)" fill="#5e028f"/>
      </g>
      <g id="sala">
        <path id="A2" d="M629,149.984a40.957,40.957,0,0,0-.526-6.782l-.013-.1-.007-.033h0a28.635,28.635,0,0,0-1.271-4.885,22.029,22.029,0,0,0-5.2-8.366,21.543,21.543,0,0,0-8.146-4.985,32.16,32.16,0,0,0-10.669-1.664,27.117,27.117,0,0,0-11.148,2.2,23.981,23.981,0,0,0-8.306,6,25.936,25.936,0,0,0-5.145,9.058,35.408,35.408,0,0,0-1.77,11.361,29.326,29.326,0,0,0,1.77,10.456,22.526,22.526,0,0,0,4.985,7.933,22.028,22.028,0,0,0,7.667,5.038,26.655,26.655,0,0,0,9.917,1.77,19.773,19.773,0,0,0,9.111-1.877,21.665,21.665,0,0,0,4.18-2.755v.126a3.224,3.224,0,0,0,3.221,3.221h8.14a3.224,3.224,0,0,0,3.221-3.221V149.971Zm-25.73-15.334a10.725,10.725,0,0,1,8.685,3.86q3.215,3.853,3.215,11.58t-3.215,11.58a11.714,11.714,0,0,1-17.37,0q-3.215-3.863-3.221-11.58t3.221-11.58A10.707,10.707,0,0,1,603.275,134.65Z" transform="translate(-437.936 -99.39)" fill="#5e028f"/>
        <path id="L" d="M545,161.2V92.6a3.224,3.224,0,0,1,3.221-3.221h8.139a3.228,3.228,0,0,1,3.221,3.221v68.6a3.224,3.224,0,0,1-3.221,3.221h-8.139A3.228,3.228,0,0,1,545,161.2Z" transform="translate(-427.3 -88.089)" fill="#5e028f"/>
        <path id="A1" d="M505.711,149.984a40.957,40.957,0,0,0-.526-6.782l-.013-.1-.007-.033h0a28.043,28.043,0,0,0-1.278-4.885,22.016,22.016,0,0,0-5.2-8.366,21.542,21.542,0,0,0-8.146-4.985,32.188,32.188,0,0,0-10.669-1.664,27.117,27.117,0,0,0-11.148,2.2,24.068,24.068,0,0,0-8.313,6,26.039,26.039,0,0,0-5.145,9.058,35.407,35.407,0,0,0-1.77,11.361,29.178,29.178,0,0,0,1.77,10.456,22.524,22.524,0,0,0,4.985,7.933,22.028,22.028,0,0,0,7.667,5.038,26.68,26.68,0,0,0,9.916,1.77,19.773,19.773,0,0,0,9.111-1.877,21.87,21.87,0,0,0,4.18-2.755v.126a3.224,3.224,0,0,0,3.221,3.221H502.5a3.224,3.224,0,0,0,3.221-3.221V149.971Zm-25.73-15.334a10.7,10.7,0,0,1,8.679,3.86q3.225,3.853,3.221,11.58t-3.221,11.58a11.707,11.707,0,0,1-17.364,0q-3.215-3.863-3.221-11.58t3.221-11.58A10.707,10.707,0,0,1,479.982,134.65Z" transform="translate(-396.697 -99.39)" fill="#5e028f"/>
        <path id="S" d="M371.964,151.638q1.887.289,3.96.446,4.233.319,9.058.319,10.392,0,15.653-2.3t5.251-8.412a6.579,6.579,0,0,0-1.551-4.4,14.639,14.639,0,0,0-4.02-3.215,41.307,41.307,0,0,0-5.9-2.569q-3.324-1.178-6.862-2.469t-6.915-2.842a29.146,29.146,0,0,1-6.056-3.7,18.918,18.918,0,0,1-4.665-5.571,15.811,15.811,0,0,1-1.77-7.72,18.237,18.237,0,0,1,2.522-9.7,20.4,20.4,0,0,1,6.915-6.808,33.107,33.107,0,0,1,10.289-3.967,59.711,59.711,0,0,1,12.758-1.284c2.5,0,4.945.087,7.341.266,1.5.113,3.008.286,4.519.526a3.2,3.2,0,0,1,2.722,3.181v6.236a3.22,3.22,0,0,1-3.687,3.188,71.017,71.017,0,0,0-10.349-.745q-8.685,0-13.83,1.877t-5.145,6.489a5.607,5.607,0,0,0,2.356,4.612,28.761,28.761,0,0,0,6,3.427c1.717.785,3.534,1.537,5.464,2.25s3.893,1.484,5.9,2.3,3.927,1.717,5.79,2.675A39.065,39.065,0,0,1,412.967,127a19.25,19.25,0,0,1,5.411,6.163,17.816,17.816,0,0,1,1.983,8.738q0,7.507-3.374,12.059a22.63,22.63,0,0,1-8.519,7.021,37.273,37.273,0,0,1-11.367,3.274,94.318,94.318,0,0,1-12.006.805q-4.073,0-8.579-.266c-1.93-.113-3.767-.3-5.491-.546a3.2,3.2,0,0,1-2.762-3.188v-6.229a3.212,3.212,0,0,1,3.7-3.181Z" transform="translate(-368.15 -87.44)" fill="#5e028f"/>
      </g>
    </g>
    <g id="face" transform="translate(-0.02 -0.02)">
      <path id="mouth" d="M158.857,190.3a60.223,60.223,0,0,0,3.8-5.2,2.3,2.3,0,0,0,.346-.845,2.267,2.267,0,0,0-.033-.918,2.212,2.212,0,0,0-.373-.832,2.337,2.337,0,0,0-.685-.606l-7-4.14a2.268,2.268,0,0,0-3.055.705,47.766,47.766,0,0,1-6.236,7.587,47.4,47.4,0,0,1-9.717,7.374,48.1,48.1,0,0,1-5.491,2.675,47.6,47.6,0,0,1-17.943,3.521,47.92,47.92,0,0,1-6.249-.413,45.941,45.941,0,0,1-6.123-1.225,46.679,46.679,0,0,1-11.467-4.792,45.172,45.172,0,0,1-5.165-3.5A47.343,47.343,0,0,1,72.55,177.636a2.275,2.275,0,0,0-3.035-.772l-7.095,3.98a2.261,2.261,0,0,0-.7.586,2.462,2.462,0,0,0-.453,1.75,2.322,2.322,0,0,0,.326.852,59.367,59.367,0,0,0,3.787,5.4,61.142,61.142,0,0,0,4.359,4.952,59.822,59.822,0,0,0,19.593,13.264,59.729,59.729,0,0,0,30.848,4.166,61.353,61.353,0,0,0,7.614-1.5,59.279,59.279,0,0,0,7.354-2.476,60,60,0,0,0,6.988-3.414,61.068,61.068,0,0,0,6.489-4.286,60.222,60.222,0,0,0,5.877-5.078,58.957,58.957,0,0,0,4.339-4.765Z" transform="translate(-20.472 -59.045)" fill="#46c828" fill-rule="evenodd"/>
      <path id="eye" d="M200.214,112.343l4.552-6.875a2.275,2.275,0,0,0-.612-3.128,103.773,103.773,0,0,0-12.093-7.188,82.781,82.781,0,0,0-13.111-5.211L175.469,88.9l14.6-6.529a2.289,2.289,0,0,0,1.151-3l-3.3-7.4a2.24,2.24,0,0,0-1.265-1.191,2.3,2.3,0,0,0-1.744.04L151.184,85.908a2.254,2.254,0,0,0-1.1,1.045,2.33,2.33,0,0,0-.193,1.511l1.83,8.6a2.242,2.242,0,0,0,2.183,1.8,71.545,71.545,0,0,1,23.054,3.74c6.735,2.349,12.978,5.8,20.132,10.4a2.288,2.288,0,0,0,3.135-.652Z" transform="translate(-50.102 -23.607)" fill="#46c828" fill-rule="evenodd"/>
      <path id="heart" d="M77.979,77.253l-.466.413a4.96,4.96,0,0,1-6.875,0l-.459-.413-.473-.373a8.507,8.507,0,0,0-2.589-1.291,11.8,11.8,0,0,0-3.381-.439,10.808,10.808,0,0,0-3.86.705,10.2,10.2,0,0,0-3.261,2.01,9.257,9.257,0,0,0-2.183,3,8.513,8.513,0,0,0-.752,3.514,16.263,16.263,0,0,0,1.71,6.942,35.9,35.9,0,0,0,4.685,7.161,82.9,82.9,0,0,0,5.777,6.3c2.1,2.1,4.366,4.219,6.669,6.343a2.271,2.271,0,0,0,3.088,0c2.3-2.123,4.566-4.246,6.669-6.343s4.066-4.206,5.777-6.3a35.525,35.525,0,0,0,4.685-7.161,16.24,16.24,0,0,0,1.71-6.942,8.49,8.49,0,0,0-.752-3.514,9.284,9.284,0,0,0-2.183-3,10.2,10.2,0,0,0-3.261-2.01,10.808,10.808,0,0,0-3.86-.705,11.769,11.769,0,0,0-3.381.439,8.358,8.358,0,0,0-2.589,1.291l-.466.373Z" transform="translate(-17.941 -25.122)" fill="#46c828" fill-rule="evenodd"/>
      <path id="bottom-right-corner" d="M208.763,242.446h6.189a27.45,27.45,0,0,0,27.354-27.354v-5.9a2.241,2.241,0,0,1,2.236-2.236h8.4a2.241,2.241,0,0,1,2.236,2.236v5.9A40.311,40.311,0,0,1,214.966,255.3h-6.189a2.241,2.241,0,0,1-2.236-2.236v-8.4a2.241,2.241,0,0,1,2.236-2.236Z" transform="translate(-69.067 -69.207)" fill="#46c828"/>
      <path id="bottom-left-corner" d="M12.868,209.213v5.9a27.45,27.45,0,0,0,27.354,27.354h6.356a2.241,2.241,0,0,1,2.236,2.236v8.4a2.241,2.241,0,0,1-2.236,2.236H40.222A40.311,40.311,0,0,1,.01,215.123v-5.9a2.241,2.241,0,0,1,2.236-2.236h8.4a2.241,2.241,0,0,1,2.236,2.236Z" transform="translate(0.01 -69.217)" fill="#46c828"/>
      <path id="top-right-corner" d="M208.75-.007h6.189A40.311,40.311,0,0,1,255.151,40.2v5.9a2.241,2.241,0,0,1-2.236,2.236h-8.4a2.241,2.241,0,0,1-2.236-2.236V40.2a27.45,27.45,0,0,0-27.354-27.354h-6.189a2.241,2.241,0,0,1-2.236-2.236v-8.4A2.241,2.241,0,0,1,208.736-.02Z" transform="translate(-69.054 0.02)" fill="#46c828"/>
      <path id="top-left-corner" d="M-.007,46.118v-5.9A40.311,40.311,0,0,1,40.2.01h6.356A2.241,2.241,0,0,1,48.8,2.246v8.4a2.241,2.241,0,0,1-2.236,2.236H40.2A27.45,27.45,0,0,0,12.851,40.235v5.9a2.241,2.241,0,0,1-2.236,2.236h-8.4A2.241,2.241,0,0,1-.02,46.132Z" transform="translate(0.02 0.01)" fill="#46c828"/>
    </g>
  </g>
</svg>
