<svg id="sala-de-encontro-primary" xmlns="http://www.w3.org/2000/svg" width="1000.005" height="282.234" viewBox="0 0 1000.005 282.234">
  <g id="naming" transform="translate(0 0)">
    <g id="encontro" transform="translate(374.039 149.594)">
      <path id="O2" d="M625,201.528a44.471,44.471,0,0,1-16.733-3.1,39.2,39.2,0,0,1-13.308-8.7,40.35,40.35,0,0,1-8.783-13.308,46.615,46.615,0,0,1,0-33.812,40.348,40.348,0,0,1,8.783-13.308,39.2,39.2,0,0,1,13.308-8.7,46.778,46.778,0,0,1,33.467,0,39.2,39.2,0,0,1,13.308,8.7,40.351,40.351,0,0,1,8.783,13.308,46.613,46.613,0,0,1,0,33.812,40.349,40.349,0,0,1-8.783,13.308,39.437,39.437,0,0,1-13.308,8.7A44.587,44.587,0,0,1,625,201.528Zm0-17.912q8.862,0,14.062-6.033,5.185-6.033,5.185-18.069t-5.185-18.069q-5.185-6.033-14.062-6.018-8.862,0-14.062,6.018-5.185,6.033-5.185,18.069t5.185,18.069Q616.121,183.616,625,183.616Z" transform="translate(-41.031 -82.478)" fill="#5e028f"/>
      <path id="R" d="M544.9,194.579V153.743q0-17.252,10.543-26.695t29.287-9.459c1.791,0,3.347.031,4.682.079,1.335.063,2.545.141,3.6.251.723.079,1.445.173,2.152.267a5,5,0,0,1,4.289,4.981v9.616a5.021,5.021,0,0,1-5.562,5c-.267-.031-.534-.063-.8-.079q-3.347-.33-6.033-.33c-6.018,0-10.763.471-14.219,3.425s-5.185,7.337-5.185,13.135v40.663a5.043,5.043,0,0,1-5.028,5.028H549.908a5.043,5.043,0,0,1-5.028-5.028Z" transform="translate(-62.805 -82.427)" fill="#5e028f"/>
      <path id="T" d="M551.863,213.428c-.44.079-.9.157-1.383.22a54.013,54.013,0,0,1-7.526.5,38.079,38.079,0,0,1-13.135-2.168,28.772,28.772,0,0,1-10.213-6.269,27.7,27.7,0,0,1-6.615-10.134,38.292,38.292,0,0,1-2.341-13.889V100.428a5.043,5.043,0,0,1,5.028-5.028h12.711a5.043,5.043,0,0,1,5.028,5.028v32.508h15.052a5.043,5.043,0,0,1,5.028,5.028v7.51a5.043,5.043,0,0,1-5.028,5.028H533.417V181.69a14.454,14.454,0,0,0,3.1,9.459c2.058,2.514,5,3.771,8.783,3.771a34.885,34.885,0,0,0,4.934-.314,5,5,0,0,1,5.782,4.965v8.924a4.984,4.984,0,0,1-4.148,4.949Z" transform="translate(-82.357 -95.101)" fill="#5e028f"/>
      <path id="N2" d="M508.5,194.773V148.878c0-5.138-1.116-8.783-3.347-10.967-2.231-2.168-5.861-3.268-10.873-3.268-5.028,0-8.642,1.084-10.873,3.268-2.231,2.168-3.347,5.845-3.347,10.967v45.895a5.043,5.043,0,0,1-5.028,5.028H462.668a5.043,5.043,0,0,1-5.028-5.028V146.537q0-15.06,9.867-22.17t26.946-7.118q17.063,0,26.946,7.118t9.883,22.17v48.236a5.043,5.043,0,0,1-5.028,5.028H513.543a5.043,5.043,0,0,1-5.028-5.028Z" transform="translate(-112.636 -82.621)" fill="#5e028f"/>
      <path id="O1" d="M439.718,201.528a44.47,44.47,0,0,1-16.733-3.1,39.2,39.2,0,0,1-13.308-8.7,40.348,40.348,0,0,1-8.783-13.308,46.614,46.614,0,0,1,0-33.812,40.349,40.349,0,0,1,8.783-13.308,39.2,39.2,0,0,1,13.308-8.7,46.778,46.778,0,0,1,33.466,0,39.2,39.2,0,0,1,13.308,8.7,40.351,40.351,0,0,1,8.783,13.308,46.615,46.615,0,0,1,0,33.812,40.35,40.35,0,0,1-8.783,13.308,39.436,39.436,0,0,1-13.308,8.7A44.587,44.587,0,0,1,439.718,201.528Zm0-17.912q8.862,0,14.062-6.033,5.185-6.033,5.185-18.069t-5.185-18.069q-5.185-6.033-14.062-6.018-8.861,0-14.062,6.018-5.185,6.033-5.185,18.069t5.185,18.069Q430.841,183.616,439.718,183.616Z" transform="translate(-146.863 -82.478)" fill="#5e028f"/>
      <path id="C" d="M413.9,198.506c-1.1.157-2.263.33-3.472.471q-4.407.566-9.27.738a90.2,90.2,0,0,1-20.74-1.461,45.291,45.291,0,0,1-16.293-6.395,31.71,31.71,0,0,1-10.873-12.02,35.84,35.84,0,0,1-4.258-16.89,40.7,40.7,0,0,1,3.127-18.32,37.987,37.987,0,0,1,9.977-14.157,43.879,43.879,0,0,1,15.7-8.752,73.183,73.183,0,0,1,20.237-3.378q4.855-.165,9.207.11c1.32.079,2.844.173,4.352.267a5.027,5.027,0,0,1,4.7,5.2l-.3,8.579a4.826,4.826,0,0,1-1.681,3.582,4.905,4.905,0,0,1-3.755,1.257l-1.241-.094c-2.294-.141-5.106-.157-8.453-.047q-14.73.495-22.122,6.788c-4.934,4.179-7.322,8.484-7.007,17.519.283,8.029,3,12.428,8.249,15.759s12.837,4.839,22.767,4.494c3.237-.11,6.065-.314,8.516-.628.33-.047.66-.079.974-.126a5.03,5.03,0,0,1,5.719,4.808l.267,7.573a4.979,4.979,0,0,1-4.289,5.138Z" transform="translate(-174.717 -82.033)" fill="#5e028f"/>
      <path id="N1" d="M347,194.773V148.878c0-5.138-1.115-8.783-3.347-10.967-2.231-2.168-5.861-3.268-10.888-3.268s-8.642,1.084-10.873,3.268c-2.231,2.168-3.347,5.845-3.347,10.967v45.895a5.043,5.043,0,0,1-5.028,5.028H301.148a5.043,5.043,0,0,1-5.028-5.028V146.537q0-15.06,9.867-22.17t26.946-7.118q17.063,0,26.946,7.118t9.867,22.17v48.236a5.043,5.043,0,0,1-5.028,5.028H352.007a5.043,5.043,0,0,1-5.028-5.028Z" transform="translate(-204.896 -82.621)" fill="#5e028f"/>
      <path id="E" d="M238.06,207.362V100.238a5.043,5.043,0,0,1,5.028-5.028h67.954a5.043,5.043,0,0,1,5.028,5.028V110.1a5.043,5.043,0,0,1-5.028,5.028h-49.21v25.94H301.8a5.043,5.043,0,0,1,5.028,5.028v8.862a5.043,5.043,0,0,1-5.028,5.028H261.832v32.461h49.54a5.043,5.043,0,0,1,5.028,5.028v9.867a5.043,5.043,0,0,1-5.028,5.028H243.088a5.043,5.043,0,0,1-5.028-5.028Z" transform="translate(-238.06 -95.21)" fill="#5e028f"/>
    </g>
    <g id="de" transform="translate(714.549 15.586)">
      <path id="E-2" data-name="E" d="M538.846,35.74c13.5-5.766,32.791-4.588,44.1,5.436,8.186,7.243,11.124,18.964,11.124,29.6,0,1.147.016,2.7,0,4.305a5.026,5.026,0,0,1-5.028,5H534.965c2.153,16.843,19.231,16.042,31.094,16.042a112.035,112.035,0,0,0,12.4-.786,5.03,5.03,0,0,1,5.641,4.981v8.846a5.011,5.011,0,0,1-4.494,5,134.944,134.944,0,0,1-26.161.456c-10.653-1.116-21.023-4.289-28.674-10.81-7.18-6.112-11.407-16.922-11.517-29.114-.157-18.022,9.192-31.958,25.611-38.966Zm32.3,27.685c0-8.374-7.322-13.717-16.372-13.638-8.877.079-17.456,6.929-18.43,13.638h34.8Z" transform="translate(-421.383 2.849)" fill="#5e028f"/>
      <path id="D" d="M-704.034-270.176a34.244,34.244,0,0,1-11.973-7.871,35.049,35.049,0,0,1-7.777-12.381,45.779,45.779,0,0,1-2.766-16.324,55.294,55.294,0,0,1,2.766-17.739,40.328,40.328,0,0,1,8.028-14.141,37.428,37.428,0,0,1,12.978-9.381,42.508,42.508,0,0,1,17.41-3.424,50.416,50.416,0,0,1,16.655,2.592q.468.163.927.336v-33.048a5.043,5.043,0,0,1,5.027-5.027h12.712a5.043,5.043,0,0,1,5.027,5.027v107.124a5.043,5.043,0,0,1-5.027,5.028h-12.712a5.043,5.043,0,0,1-5.027-5.028v-.216a33.878,33.878,0,0,1-6.537,4.318q-5.679,2.921-14.219,2.922A41.644,41.644,0,0,1-704.034-270.176Zm5.279-57.333q-5.021,6.033-5.028,18.085t5.028,18.068q5.019,6.033,13.559,6.034t13.559-6.034q5.019-6.01,5.027-18.068t-5.027-18.085q-5.021-6.01-13.559-6.017T-698.755-327.509Z" transform="translate(726.549 386.586)" fill="#5e028f"/>
    </g>
    <g id="sala" transform="translate(374.401 13.575)">
      <path id="A2" d="M457.78,74.137a62.4,62.4,0,0,0-.833-10.59l-.016-.157-.016-.047h0a45.566,45.566,0,0,0-1.98-7.636,34.37,34.37,0,0,0-8.123-13.057,33.684,33.684,0,0,0-12.727-7.777,50.407,50.407,0,0,0-16.655-2.592,42.5,42.5,0,0,0-17.409,3.425,37.417,37.417,0,0,0-12.978,9.38,40.336,40.336,0,0,0-8.029,14.141,55.3,55.3,0,0,0-2.765,17.739,45.787,45.787,0,0,0,2.765,16.325,35.053,35.053,0,0,0,7.777,12.381,34.243,34.243,0,0,0,11.973,7.872,41.628,41.628,0,0,0,15.476,2.765q8.532,0,14.235-2.922A34.25,34.25,0,0,0,435,109.08v.2a5.043,5.043,0,0,0,5.028,5.028h12.711a5.043,5.043,0,0,0,5.028-5.028V74.137ZM417.62,50.207q8.531,0,13.559,6.033t5.028,18.069q0,12.043-5.028,18.084T417.62,98.412q-8.532,0-13.56-6.018-5.02-6.033-5.028-18.084t5.028-18.069Q409.08,50.207,417.62,50.207Z" transform="translate(-159.488 4.863)" fill="#5e028f"/>
      <path id="L" d="M355.23,122.051V14.958a5.043,5.043,0,0,1,5.028-5.028h12.711A5.043,5.043,0,0,1,378,14.958V122.051a5.043,5.043,0,0,1-5.028,5.028H360.258A5.043,5.043,0,0,1,355.23,122.051Z" transform="translate(-171.494 -7.903)" fill="#5e028f"/>
      <path id="A1" d="M376.255,74.137a62.4,62.4,0,0,0-.833-10.59l-.016-.157-.016-.047h0a44.111,44.111,0,0,0-2-7.636,34.369,34.369,0,0,0-8.123-13.057,33.683,33.683,0,0,0-12.727-7.777,50.407,50.407,0,0,0-16.655-2.592,42.5,42.5,0,0,0-17.409,3.425,37.418,37.418,0,0,0-12.978,9.38,40.337,40.337,0,0,0-8.029,14.141,55.306,55.306,0,0,0-2.765,17.739,45.444,45.444,0,0,0,2.765,16.325,35.052,35.052,0,0,0,7.777,12.381,34.243,34.243,0,0,0,11.973,7.872,41.653,41.653,0,0,0,15.492,2.765q8.532,0,14.235-2.922a34.252,34.252,0,0,0,6.52-4.305v.2a5.043,5.043,0,0,0,5.028,5.028h12.711a5.043,5.043,0,0,0,5.028-5.028V74.137ZM336.08,50.207q8.532,0,13.559,6.033t5.028,18.069q0,12.043-5.028,18.084T336.08,98.412q-8.532,0-13.559-6.018-5.02-6.033-5.028-18.084t5.028-18.069Q327.54,50.207,336.08,50.207Z" transform="translate(-206.063 4.863)" fill="#5e028f"/>
      <path id="S" d="M244.229,108.882c1.964.3,4.022.534,6.191.691q6.6.495,14.141.5,16.238,0,24.432-3.6t8.2-13.135a10.243,10.243,0,0,0-2.42-6.866,23.2,23.2,0,0,0-6.269-5.028,65.16,65.16,0,0,0-9.207-4.022q-5.185-1.838-10.716-3.849-5.515-2-10.794-4.431a45.013,45.013,0,0,1-9.459-5.782,29.29,29.29,0,0,1-7.275-8.7,24.7,24.7,0,0,1-2.765-12.051,28.472,28.472,0,0,1,3.928-15.146,31.757,31.757,0,0,1,10.794-10.621,51.562,51.562,0,0,1,16.073-6.191A93.651,93.651,0,0,1,289.008,8.64q5.868,0,11.47.424c2.341.173,4.7.456,7.055.817a4.992,4.992,0,0,1,4.242,4.965v9.741a4.87,4.87,0,0,1-1.744,3.8,4.813,4.813,0,0,1-4.022,1.163,110.02,110.02,0,0,0-16.168-1.163q-13.552,0-21.588,2.922t-8.029,10.119a8.736,8.736,0,0,0,3.677,7.2,45.345,45.345,0,0,0,9.364,5.358c2.671,1.226,5.531,2.4,8.532,3.519q4.525,1.673,9.207,3.6c3.127,1.288,6.128,2.671,9.034,4.179a60.376,60.376,0,0,1,8.2,5.106A30.423,30.423,0,0,1,316.693,80a27.908,27.908,0,0,1,3.1,13.638q0,11.713-5.279,18.823A35.407,35.407,0,0,1,301.2,123.432a58.007,58.007,0,0,1-17.739,5.106,147.072,147.072,0,0,1-18.744,1.257q-6.363,0-13.387-.424-4.525-.283-8.579-.848a5,5,0,0,1-4.305-4.981v-9.726a5.027,5.027,0,0,1,5.782-4.981Z" transform="translate(-238.29 -8.64)" fill="#5e028f"/>
    </g>
  </g>
  <g id="face">
    <path id="month" d="M187.373,134.239a90.014,90.014,0,0,0,5.766-7.9,3.478,3.478,0,0,0,.518-1.288,3.439,3.439,0,0,0-.047-1.383,3.18,3.18,0,0,0-.566-1.257,3.442,3.442,0,0,0-1.037-.911l-10.621-6.269a3.449,3.449,0,0,0-4.635,1.068,73.775,73.775,0,0,1-4.431,6,70.021,70.021,0,0,1-5.028,5.515,71.555,71.555,0,0,1-7.008,6.065,72.328,72.328,0,0,1-7.73,5.122,71.523,71.523,0,0,1-8.327,4.054,69.705,69.705,0,0,1-8.8,2.954,71.893,71.893,0,0,1-9.113,1.791,70.713,70.713,0,0,1-9.286.613,73.62,73.62,0,0,1-9.474-.628,71.252,71.252,0,0,1-34.519-14.439,71.353,71.353,0,0,1-12.13-12.035,68.809,68.809,0,0,1-4.415-6.238,3.416,3.416,0,0,0-2.074-1.493,3.494,3.494,0,0,0-2.53.33l-10.763,6.033a3.276,3.276,0,0,0-1.053.88,3.457,3.457,0,0,0-.6,1.257,3.535,3.535,0,0,0-.094,1.4,3.407,3.407,0,0,0,.487,1.288A94.13,94.13,0,0,0,45.6,132.95a89.293,89.293,0,0,0,6.615,7.51A91.763,91.763,0,0,0,71.151,155.2a92.171,92.171,0,0,0,10.794,5.389A90.381,90.381,0,0,0,93.289,164.5a89.2,89.2,0,0,0,11.768,2.372,91.422,91.422,0,0,0,23.678.031,92.625,92.625,0,0,0,11.548-2.278,87.768,87.768,0,0,0,11.156-3.755,90.614,90.614,0,0,0,10.606-5.185,91.968,91.968,0,0,0,9.851-6.5,90.478,90.478,0,0,0,8.909-7.7,92.806,92.806,0,0,0,6.583-7.228Z" transform="translate(22.477 64.816)" fill="#46c828" fill-rule="evenodd"/>
    <path id="eye" d="M172.668,108.645l6.9-10.433a3.417,3.417,0,0,0,.5-2.561,3.466,3.466,0,0,0-1.43-2.184,155.729,155.729,0,0,0-18.352-10.9,124.723,124.723,0,0,0-19.876-7.9l-5.279-1.587,22.138-9.9a3.475,3.475,0,0,0,1.807-1.917,3.423,3.423,0,0,0-.063-2.64L154,47.4a3.426,3.426,0,0,0-1.917-1.807,3.5,3.5,0,0,0-2.64.063L98.3,68.548a3.41,3.41,0,0,0-1.964,3.881L99.12,85.47a3.578,3.578,0,0,0,1.163,1.964,3.382,3.382,0,0,0,2.137.77c13.779.236,24.731,2.09,34.959,5.672,10.213,3.567,19.687,8.8,30.528,15.775a3.406,3.406,0,0,0,2.592.471,3.48,3.48,0,0,0,2.168-1.461Z" transform="translate(54.983 25.912)" fill="#46c828" fill-rule="evenodd"/>
    <path id="heart" d="M71.335,51.47l-.707.628a7.535,7.535,0,0,1-10.433-.016l-.691-.628-.723-.566a12.425,12.425,0,0,0-3.928-1.948,18.011,18.011,0,0,0-5.122-.66,16.231,16.231,0,0,0-5.845,1.068A15.311,15.311,0,0,0,38.936,52.4a14.046,14.046,0,0,0-3.315,4.556,12.9,12.9,0,0,0-1.131,5.326,24.741,24.741,0,0,0,2.592,10.527A54.229,54.229,0,0,0,44.2,83.663a127.543,127.543,0,0,0,8.767,9.569c3.19,3.174,6.63,6.395,10.119,9.616a3.437,3.437,0,0,0,2.341.911,3.513,3.513,0,0,0,2.341-.911c3.488-3.221,6.929-6.442,10.119-9.616a127.546,127.546,0,0,0,8.767-9.569,53.449,53.449,0,0,0,7.1-10.857,24.686,24.686,0,0,0,2.592-10.527,13.047,13.047,0,0,0-1.131-5.326A14.046,14.046,0,0,0,91.9,52.4a15.587,15.587,0,0,0-4.949-3.048,16.231,16.231,0,0,0-5.845-1.068,17.934,17.934,0,0,0-5.122.66,12.765,12.765,0,0,0-3.928,1.948l-.707.566Z" transform="translate(19.701 27.577)" fill="#46c828" fill-rule="evenodd"/>
    <path id="bottom-right-corner" d="M136.064,186.774h9.4a41.629,41.629,0,0,0,41.48-41.48v-8.94a3.4,3.4,0,0,1,3.394-3.394H203.06a3.4,3.4,0,0,1,3.394,3.394v8.94a61.155,61.155,0,0,1-60.994,60.994h-9.4a3.4,3.4,0,0,1-3.394-3.394V190.167a3.4,3.4,0,0,1,3.394-3.394Z" transform="translate(75.781 75.946)" fill="#46c828"/>
    <path id="bottom-left-corner" d="M19.514,136.354v8.94a41.629,41.629,0,0,0,41.48,41.48h9.647a3.4,3.4,0,0,1,3.394,3.394v12.727a3.4,3.4,0,0,1-3.394,3.394H60.994A61.155,61.155,0,0,1,0,145.294v-8.94a3.4,3.4,0,0,1,3.394-3.394H16.12a3.4,3.4,0,0,1,3.394,3.394Z" transform="translate(0 75.946)" fill="#46c828"/>
    <path id="top-right-corner" d="M136.064,0h9.4a61.155,61.155,0,0,1,60.994,60.994v8.94a3.4,3.4,0,0,1-3.394,3.394H190.333a3.4,3.4,0,0,1-3.394-3.394v-8.94a41.629,41.629,0,0,0-41.48-41.48h-9.4a3.4,3.4,0,0,1-3.394-3.394V3.394A3.4,3.4,0,0,1,136.064,0Z" transform="translate(75.781)" fill="#46c828"/>
    <path id="top-left-corner" d="M0,69.934v-8.94A61.155,61.155,0,0,1,60.994,0h9.647a3.4,3.4,0,0,1,3.394,3.394V16.12a3.4,3.4,0,0,1-3.394,3.394H60.994a41.629,41.629,0,0,0-41.48,41.48v8.94a3.4,3.4,0,0,1-3.394,3.394H3.394A3.4,3.4,0,0,1,0,69.934Z" fill="#46c828"/>
  </g>
</svg>
